<?xml version="1.0" encoding="utf-8"?>
<!-- Generator: Adobe Illustrator 22.0.1, SVG Export Plug-In . SVG Version: 6.00 Build 0)  -->
<svg version="1.1" id="Ebene_1" xmlns="http://www.w3.org/2000/svg" xmlns:xlink="http://www.w3.org/1999/xlink" x="0px" y="0px"
	 viewBox="0 0 85 85" style="enable-background:new 0 0 85 85;" xml:space="preserve">
<style type="text/css">
	.st0{fill:#B2B2B2;}
	.st1{fill:#333333;}
</style>
<g>
	<path class="st0" d="M27,48.1c1.4,0,7.3,6.3,16.2,6.3s14.8-6.3,16.2-6.3c11.7,0,14.9,12.2,15.5,22C81.1,62.7,85,53.1,85,42.5
		C85,19,66,0,42.5,0C19,0,0,19,0,42.5c0,11.2,4.3,21.3,11.4,28.9C11.8,61.4,14.8,48.1,27,48.1z M43.1,16.3c9.6,0,17.3,7.8,17.3,17.3
		S52.7,51,43.1,51s-17.3-7.8-17.3-17.3S33.5,16.3,43.1,16.3z"/>
	<circle class="st1" cx="43.1" cy="33.7" r="17.3"/>
	<path class="st1" d="M42.5,85c12.9,0,24.5-5.8,32.3-14.9c-0.6-9.9-3.8-22-15.5-22c-1.4,0-7.3,6.3-16.2,6.3S28.3,48.1,27,48.1
		c-12.2,0-15.2,13.3-15.6,23.3C19.1,79.8,30.2,85,42.5,85z"/>
</g>
</svg>
