<?xml version="1.0" encoding="utf-8"?>
<!-- Generator: Adobe Illustrator 22.0.1, SVG Export Plug-In . SVG Version: 6.00 Build 0)  -->
<svg version="1.1" id="Ebene_1" xmlns="http://www.w3.org/2000/svg" xmlns:xlink="http://www.w3.org/1999/xlink" x="0px" y="0px"
	 viewBox="0 0 5.8 10" style="enable-background:new 0 0 5.8 10;" xml:space="preserve">
<style type="text/css">
	.st0{fill:#333333;}
</style>
<path class="st0" d="M5.7,5.2L1.1,9.9C1,10,0.9,10,0.8,10s-0.2,0-0.2-0.1L0.1,9.4C0,9.4,0,9.3,0,9.2C0,9.1,0,9,0.1,9L4,5L0.1,1.1
	C0,1,0,0.9,0,0.8s0-0.2,0.1-0.2l0.5-0.5C0.7,0,0.8,0,0.8,0S1,0,1.1,0.1l4.7,4.7C5.8,4.8,5.8,4.9,5.8,5S5.8,5.2,5.7,5.2z"/>
</svg>
