<?xml version="1.0" encoding="utf-8"?>
<!-- Generator: Adobe Illustrator 21.1.0, SVG Export Plug-In . SVG Version: 6.00 Build 0)  -->
<svg version="1.1" xmlns="http://www.w3.org/2000/svg" xmlns:xlink="http://www.w3.org/1999/xlink" x="0px" y="0px"
	 width="368" height="192"
	 viewBox="0 0 368.4 192.4" style="enable-background:new 0 0 368.4 192.4;" xml:space="preserve">
<style type="text/css">
	.st0{fill:none;}
	.st1{fill:#002C5B;}
	.st2{fill:#E2001A;}
	.st3{fill:#64B9E4;}
	.st4{fill:#1974AC;}
	.st5{fill:#8C0B28;}
	.st6{fill:#FABB00;}
	.st7{fill:#EB690B;}
	.st8{fill:#215081;}
	.st9{fill:#E29300;}
</style>
<g id="bounding_box">
	<rect x="0" y="0" class="st0" width="368.4" height="192.4"/>
</g>
<g id="vhs">
	<path class="st1" d="M112.5,73.3c0.4-1.4-0.7-3-2.3-3H97.9c-1,0-1.9,0.6-2.3,1.7l-9.5,32.5c-0.1,0.3-0.4,0.9-1.2,0.9
		c-0.7,0-1.1-0.5-1.2-0.9l-9.2-32.4c-0.3-1-1-1.9-2.3-1.9l0,0l-13.6,0c-1.3,0-2.5,0.9-2.5,2.7c0,0.9,18.1,56.6,18.3,56.9
		c0.2,0.6,0.9,1.4,2.2,1.4l15.7,0c1,0,1.9-0.6,2.3-1.6L112.5,73.3z"/>
	<path class="st1" d="M171.5,128.9c0-1.1,0-36.7,0-36.7c0-8.5-1.3-12.8-4.1-16.9c-2.9-4.1-9.2-7.2-17.7-7.2c-3.1,0-9.2,1.1-14,5.5
		V49.3c0-1.3-1-2.4-2.4-2.4c0,0-12.2,0-12.2,0c-1.5,0-2.4,1.3-2.4,2.4c0,0.3,0,79.6,0,79.6c0,1.1,0.9,2.4,2.3,2.4h12.3
		c1.4,0,2.5-1.1,2.5-2.4V93.7c0-6.3,3.9-10.7,9.5-10.7c4.9,0,9.4,3.9,9.4,10.7v35.2c0,1.5,1.1,2.4,2.3,2.4c0.2,0,10.7,0,12.3,0
		C170.7,131.3,171.5,130,171.5,128.9z"/>
	<path class="st1" d="M228.6,83.6c0-4.3-5.2-15.4-24.4-15.4c-23.2,0-24.9,13.7-24.9,17.8c0,11.3,8.3,15.5,18.7,18.6
		c9.4,2.9,15.1,5.5,15.1,9c0,5.6-5.5,6.1-8.5,6.1c-6.1,0-9.7-4.1-10.6-7.3c-0.5-1.9-1.7-2.1-2.4-2.1l-11.2,0.8
		c-1.4,0.1-2.1,1.8-2.1,2.4c0,7.4,8.6,19.8,26.4,19.8c20.4,0,26.4-12.5,26.4-19.7c0-13.2-8.9-16.6-19.4-19.7
		c-8.2-2.5-15.5-4.6-15.5-8.4c0-1.4,0-5.3,8-5.3c4.5,0,8.9,1.4,9.9,4.8c0.4,1.3,1.6,1.8,2.3,1.8c1.4,0,10-0.7,10-0.7
		C227.4,86.1,228.6,85.5,228.6,83.6z"/>
</g>
<g id="Signet">
	<path class="st2" d="M300.9,126c-1.4,0-2.7,0.3-3.9,0.9c0-0.3-0.1-0.6-0.1-0.9c-1.4-8.8-9-15.5-18.2-15.5
		c-10.2,0-18.4,8.2-18.4,18.4c0,10.2,8.2,18.4,18.4,18.4c5.9,0,11.1-2.8,14.5-7.1c1.6,2.5,4.5,4.1,7.7,4.1c5.1,0,9.2-4.1,9.2-9.2
		C310.1,130.1,306,126,300.9,126z"/>
	<path class="st3" d="M318,124.4c0,4.9-3.4,9.1-7.9,10.3c-0.9,0.2-12-3.2-13.1-7.9c-0.2-0.8-0.3-1.6-0.3-2.4
		c0-5.9,4.8-10.6,10.6-10.6C313.3,113.8,318,118.5,318,124.4z"/>
	<circle class="st4" cx="322.4" cy="116.1" r="12.8"/>
	<path class="st5" d="M310.1,134.7c-0.3-4.9-4.3-8.7-9.2-8.7c-1.4,0-2.7,0.3-3.9,0.9c1.1,4.7,5.3,8.2,10.4,8.2
		C308.3,135,309.2,134.9,310.1,134.7z"/>
	<circle class="st3" cx="322.4" cy="101.2" r="5"/>
	<path class="st6" d="M318.5,47.4c-5.4,0-10.3,2-14,5.3c-0.9-0.8-2.1-1.3-3.3-1.3c-2.7,0-5,2.2-5,5c0,1.9,1.1,3.5,2.6,4.4
		c-1,2.5-1.5,5.1-1.5,7.9c0,11.7,9.5,21.3,21.3,21.3c11.7,0,21.3-9.5,21.3-21.3C339.8,56.9,330.2,47.4,318.5,47.4z"/>
	<path class="st7" d="M263.7,118.3c2.7-3.3,2.2-8.3-1.2-11c-3.3-2.7-8.3-2.2-11,1.2c-2.7,3.3-2.2,8.3,1.2,11
		C256.1,122.1,261,121.6,263.7,118.3"/>
	<g>
		<path class="st8" d="M309.9,114.1c-0.1,0.7-0.2,1.4-0.2,2.1c0,5.3,3.2,9.8,7.8,11.7c0.4-1.1,0.6-2.3,0.6-3.5
			C318,119.4,314.5,115.2,309.9,114.1z"/>
		<path class="st8" d="M322.4,103.4c-1.4,0-2.8,0.2-4,0.7c0.9,1.3,2.4,2.1,4,2.1c1.7,0,3.1-0.8,4-2.1
			C325.2,103.6,323.8,103.4,322.4,103.4z"/>
	</g>
	<path class="st9" d="M298.8,60.7c0.7,0.4,1.5,0.6,2.3,0.6c2.7,0,5-2.2,5-5c0-1.4-0.6-2.7-1.6-3.6C302,54.9,300,57.6,298.8,60.7z"/>
	<path class="st1" d="M273.3,46.9c-2.6,0-5,1.3-6.4,3.3c-2.6-1.9-5.8-3.1-9.3-3.1c-8.6,0-15.6,7-15.6,15.6c0,8.6,7,15.6,15.6,15.6
		s15.6-7,15.6-15.6c0-0.1,0-0.1,0-0.2c0,0,0.1,0,0.1,0c4.3,0,7.8-3.5,7.8-7.8C281.1,50.4,277.6,46.9,273.3,46.9z"/>
	<path class="st1" d="M245.9,87.1c-2.5-1.2-5.4-0.1-6.6,2.4c-1.2,2.5-0.1,5.4,2.3,6.6c2.5,1.2,5.4,0.1,6.6-2.3
		C249.4,91.2,248.4,88.2,245.9,87.1z"/>
	<circle class="st1" cx="288.1" cy="61" r="2.4"/>
	<circle class="st1" cx="321.2" cy="135.9" r="2.4"/>
</g>
</svg>
