<?xml version="1.0" encoding="utf-8"?>
<!-- Generator: Adobe Illustrator 22.0.1, SVG Export Plug-In . SVG Version: 6.00 Build 0)  -->
<svg version="1.1" id="Ebene_1" xmlns="http://www.w3.org/2000/svg" xmlns:xlink="http://www.w3.org/1999/xlink" x="0px" y="0px"
	 viewBox="0 0 17.1 25.7" style="enable-background:new 0 0 17.1 25.7;" xml:space="preserve">
<style type="text/css">
	.st0{fill:#F9B000;}
</style>
<g>
	<path class="st0" d="M16.6,11.6l-6.1,13c-0.4,0.7-1.1,1.2-1.9,1.2S7,25.3,6.7,24.5l-6.1-13c-0.4-0.9-0.6-2-0.6-3C0,3.8,3.8,0,8.6,0
		s8.6,3.8,8.6,8.6C17.1,9.6,17,10.6,16.6,11.6z M8.6,4.3c-2.4,0-4.3,1.9-4.3,4.3s1.9,4.3,4.3,4.3s4.3-1.9,4.3-4.3S10.9,4.3,8.6,4.3z
		"/>
</g>
</svg>
