<svg xmlns="http://www.w3.org/2000/svg" viewBox="0 0 190.38 23.94"><defs><style>.a{fill:#005592;}</style></defs><title>180409_bertelsmann_stiftung_website_chancenportal-wiedenbrueck</title><path class="a" d="M7484,2439.37v13.13h2.75a6.57,6.57,0,0,0,2-.2,3.37,3.37,0,0,0,2.44-3.46,3.14,3.14,0,0,0-.74-2.21,3.72,3.72,0,0,0-1.65-1,3,3,0,0,0,1.92-1.75,3.71,3.71,0,0,0,.2-1.21,3,3,0,0,0-2.47-3.18,5.14,5.14,0,0,0-1.51-.11h-3Zm1.64,1.36h1.13a2.78,2.78,0,0,1,1.86.5,2.22,2.22,0,0,1,.63,1.6,2,2,0,0,1-1.47,2.08,3.29,3.29,0,0,1-1.12.11h-1v-4.3Zm0,5.67H7487a3.9,3.9,0,0,1,1.13.15,2.27,2.27,0,0,1,1.36,2.21,3.17,3.17,0,0,1-.15.93,2.27,2.27,0,0,1-.48.76,2.92,2.92,0,0,1-2.12.67h-1.13v-4.72" transform="translate(-7472 -2433.66)"/><path class="a" d="M7500.8,2450.6a4.5,4.5,0,0,1-2.38.76,2.27,2.27,0,0,1-1.49-.48,3.63,3.63,0,0,1-1.06-2.73l5.49,0v-0.39a6.31,6.31,0,0,0-.74-3.5,3,3,0,0,0-2.66-1.51c-1.8,0-3.74,1.34-3.74,5a5,5,0,0,0,1.45,3.94,3.5,3.5,0,0,0,2.51.95,6.58,6.58,0,0,0,2.27-.43,3.12,3.12,0,0,0,.34-0.19Zm-4.93-3.65a3.49,3.49,0,0,1,1-2.64,1.78,1.78,0,0,1,1.06-.35,1.56,1.56,0,0,1,1.36.74,4.32,4.32,0,0,1,.48,2.25h-3.89" transform="translate(-7472 -2433.66)"/><path class="a" d="M7504.46,2442.88c0,0.5.07,1,.09,1.51,0,0.65,0,1.3,0,2v6.15h1.58v-5.67a3.89,3.89,0,0,1,.13-1,2.59,2.59,0,0,1,1.1-1.3,3.53,3.53,0,0,1,1.1-.24,0.6,0.6,0,0,1,.3.06v-1.56a2.46,2.46,0,0,0-2.31,1.13,5,5,0,0,0-.45.74c0-.58,0-1.15-0.09-1.71l-1.49,0" transform="translate(-7472 -2433.66)"/><path class="a" d="M7516.26,2442.88h-2v-2.43l-1.62.46v2h-1.52v1.3h1.52v5.63a3.19,3.19,0,0,0,.45,2,2.35,2.35,0,0,0,2.1.78,3,3,0,0,0,1.06-.19l0-1.3a2,2,0,0,1-.86.19,1.08,1.08,0,0,1-.95-0.39,2.57,2.57,0,0,1-.2-1.25v-5.48h2v-1.3" transform="translate(-7472 -2433.66)"/><path class="a" d="M7525.55,2450.6a4.5,4.5,0,0,1-2.38.76,2.27,2.27,0,0,1-1.49-.48,3.63,3.63,0,0,1-1.06-2.73l5.49,0v-0.39a6.31,6.31,0,0,0-.74-3.5,3,3,0,0,0-2.66-1.51c-1.8,0-3.74,1.34-3.74,5a5,5,0,0,0,1.45,3.94,3.5,3.5,0,0,0,2.51.95,6.58,6.58,0,0,0,2.27-.43,3.21,3.21,0,0,0,.34-0.19Zm-4.93-3.65a3.48,3.48,0,0,1,1-2.64,1.78,1.78,0,0,1,1.06-.35,1.56,1.56,0,0,1,1.36.74,4.33,4.33,0,0,1,.48,2.25h-3.89" transform="translate(-7472 -2433.66)"/><path class="a" d="M7529.34,2452.5h1.6v-14.21h-1.6v14.21Z" transform="translate(-7472 -2433.66)"/><path class="a" d="M7539.3,2443a8.14,8.14,0,0,0-1.93-.3,2.73,2.73,0,0,0-2.83,1.78,3,3,0,0,0-.13.93,2.36,2.36,0,0,0,1.25,2.25,6.22,6.22,0,0,0,.78.43c0.76,0.35,1.82.71,1.82,1.75a1.5,1.5,0,0,1-1.67,1.47,4.59,4.59,0,0,1-1.82-.48l-0.34-.19-0.15,1.51a6.07,6.07,0,0,0,2.49.49,4.29,4.29,0,0,0,1.19-.15,2.8,2.8,0,0,0,1.84-2.75,2.57,2.57,0,0,0-1.38-2.36c-0.28-.17-0.58-0.32-0.86-0.46-0.65-.32-1.6-0.67-1.6-1.58a1.32,1.32,0,0,1,1.45-1.32,5.5,5.5,0,0,1,1.73.43l0.15-1.43" transform="translate(-7472 -2433.66)"/><path class="a" d="M7554.42,2445.93a4.42,4.42,0,0,0-.15-1.34,2.58,2.58,0,0,0-4.67-.65c-0.09.11-.19,0.24-0.26,0.35a3.58,3.58,0,0,0-.43-0.67,2.11,2.11,0,0,0-1.78-.91,3,3,0,0,0-2.57,1.58c0-.46,0-0.95,0-1.39l-1.43,0c0,0.41,0,.82,0,1.23v8.39h1.6v-6.21a2.55,2.55,0,0,1,.17-0.93,2,2,0,0,1,1.1-1.12,1.38,1.38,0,0,1,.58-0.11,1.33,1.33,0,0,1,.95.35,2.32,2.32,0,0,1,.5,1.71v6.3h1.58v-6.06a4.57,4.57,0,0,1,.09-1,2,2,0,0,1,1-1.17,1.82,1.82,0,0,1,.71-0.17,1.54,1.54,0,0,1,1.45,1.73v6.68h1.58v-6.57" transform="translate(-7472 -2433.66)"/><path class="a" d="M7564.8,2446.3a6.42,6.42,0,0,0-.19-1.67,2.92,2.92,0,0,0-3-1.92,5.52,5.52,0,0,0-2.79.76l0.15,1.45a4,4,0,0,1,2.44-.93,1.68,1.68,0,0,1,1.8,1.25,5.33,5.33,0,0,1,.11,1.39l-0.71,0c-2.32,0-3.48.56-4.13,1.51a2.77,2.77,0,0,0-.5,1.62,3.1,3.1,0,0,0,.74,2.06,2.78,2.78,0,0,0,2.1.86,3,3,0,0,0,2.57-1.51c0,0.11,0,.22,0,0.35,0,0.33.06,0.67,0.06,1h1.49c0-.35-0.06-0.71-0.07-1.06s0-.8,0-1.21v-3.92Zm-1.49,2.38a3.93,3.93,0,0,1-.17,1.19,2.44,2.44,0,0,1-.59,1,1.94,1.94,0,0,1-1.43.56,1.44,1.44,0,0,1-1.14-.47,1.74,1.74,0,0,1-.46-1.19,2.14,2.14,0,0,1,.48-1.32c0.54-.61,1.6-0.84,3.31-0.74v1" transform="translate(-7472 -2433.66)"/><path class="a" d="M7568.89,2442.88c0,0.93,0,1.84,0,2.75v6.86h1.6v-5.63a3.63,3.63,0,0,1,.48-2,1.89,1.89,0,0,1,1.47-.72,1.4,1.4,0,0,1,1.41,1.19,4.74,4.74,0,0,1,.09.87v6.3h1.58v-6.62a3.16,3.16,0,0,0-1.17-2.72,2.68,2.68,0,0,0-1.47-.43,2.77,2.77,0,0,0-2.34,1.32,2.5,2.5,0,0,0-.22.33c0-.5,0-1,0-1.49l-1.45,0" transform="translate(-7472 -2433.66)"/><path class="a" d="M7579.64,2442.88c0,0.93,0,1.84,0,2.75v6.86h1.6v-5.63a3.63,3.63,0,0,1,.49-2,1.88,1.88,0,0,1,1.47-.72,1.4,1.4,0,0,1,1.41,1.19,4.57,4.57,0,0,1,.09.87v6.3h1.58v-6.62a3.16,3.16,0,0,0-1.17-2.72,2.67,2.67,0,0,0-1.47-.43,2.77,2.77,0,0,0-2.34,1.32,2.5,2.5,0,0,0-.22.33c0-.5,0-1,0-1.49l-1.45,0" transform="translate(-7472 -2433.66)"/><path class="a" d="M7597.76,2439.65a10.9,10.9,0,0,0-2.81-.48,4,4,0,0,0-3.79,2.16,3.79,3.79,0,0,0-.28,1.45,3.62,3.62,0,0,0,1,2.58,9.72,9.72,0,0,0,2.38,1.49,3.25,3.25,0,0,1,1.45,1.19,1.85,1.85,0,0,1,.22.89,1.8,1.8,0,0,1-1.25,1.73,2.73,2.73,0,0,1-.74.09,5.29,5.29,0,0,1-2.44-.63l-0.3-.17-0.15,2.16a8.77,8.77,0,0,0,3.11.58c2.44,0,3.44-1.21,3.89-2.18a4.11,4.11,0,0,0,.39-1.73,3.91,3.91,0,0,0-1.08-2.72,6.18,6.18,0,0,0-1.23-.89l-0.93-.5c-0.59-.35-0.89-0.48-1.17-0.69a1.66,1.66,0,0,1-.65-1.3,1.57,1.57,0,0,1,.24-0.86,1.9,1.9,0,0,1,1.67-.76,5.45,5.45,0,0,1,2,.41c0.13,0.06.26,0.13,0.41,0.19l0.11-2" transform="translate(-7472 -2433.66)"/><path class="a" d="M7606.41,2442.81h-1.93v-2.72l-2.27.71v2h-1.62v1.69h1.58l0,5.11a2.78,2.78,0,0,0,.93,2.51,3,3,0,0,0,1.8.5,6.16,6.16,0,0,0,1.58-.2l-0.06-1.71a1.42,1.42,0,0,1-.74.17,1,1,0,0,1-1.12-.71,2.34,2.34,0,0,1-.07-0.71v-5h1.93v-1.69" transform="translate(-7472 -2433.66)"/><path class="a" d="M7611.93,2442.81h-2.32v9.69h2.32v-9.69Zm0.07-4.11h-2.46V2441H7612v-2.29Z" transform="translate(-7472 -2433.66)"/><path class="a" d="M7614.76,2442.81v1.69h1.62v8h2.31v-8h1.75v-1.69h-1.75v-1.32a1.44,1.44,0,0,1,.52-1.32,1.28,1.28,0,0,1,.69-0.19,2.5,2.5,0,0,1,.8.17l0-1.73a8.49,8.49,0,0,0-1.52-.17,2.94,2.94,0,0,0-2,.61,1.88,1.88,0,0,0-.39.5,3.77,3.77,0,0,0-.45,1.84v1.6h-1.62" transform="translate(-7472 -2433.66)"/><path class="a" d="M7628.26,2442.81h-1.93v-2.72l-2.27.71v2h-1.62v1.69H7624l0,5.11a2.78,2.78,0,0,0,.93,2.51,3,3,0,0,0,1.8.5,6.17,6.17,0,0,0,1.58-.2l-0.05-1.71a1.43,1.43,0,0,1-.74.17,1,1,0,0,1-1.11-.71,2.34,2.34,0,0,1-.07-0.71v-5h1.93v-1.69" transform="translate(-7472 -2433.66)"/><path class="a" d="M7639.21,2442.81h-2.32v5.67a4.25,4.25,0,0,1-.11.95,1.78,1.78,0,0,1-1.64,1.34,1.31,1.31,0,0,1-.71-0.19,1.72,1.72,0,0,1-.65-1.62v-6.16h-2.32v6.25a4.13,4.13,0,0,0,.63,2.6,2.84,2.84,0,0,0,2.21,1,3,3,0,0,0,2.47-1.23,2.2,2.2,0,0,0,.28-0.45c0,0.52,0,1,.06,1.51h2.21c-0.07-.86-0.07-1.73-0.11-2.6v-7.09" transform="translate(-7472 -2433.66)"/><path class="a" d="M7642.91,2442.81c0.07,0.82.09,1.62,0.11,2.44v7.25h2.32v-5.67a2.66,2.66,0,0,1,.35-1.54,1.64,1.64,0,0,1,1.36-.71,1.32,1.32,0,0,1,.73.19,1.7,1.7,0,0,1,.65,1.58v6.16h2.32v-6.58a4.88,4.88,0,0,0-.2-1.47,2.74,2.74,0,0,0-2.68-1.8,3,3,0,0,0-2.47,1.26,2.74,2.74,0,0,0-.26.47c0-.52,0-1-0.05-1.56h-2.18" transform="translate(-7472 -2433.66)"/><path class="a" d="M7662.3,2444.09c0-.43.06-0.86,0.07-1.28h-2.19a13.25,13.25,0,0,0-.06,1.49,5.19,5.19,0,0,0-.33-0.5,4.28,4.28,0,0,0-.48-0.5,2.6,2.6,0,0,0-1.71-.65,2.77,2.77,0,0,0-2,.78c-0.78.71-1.45,1.9-1.45,4.17a6,6,0,0,0,1.13,3.89,2.81,2.81,0,0,0,2.25,1,2.57,2.57,0,0,0,1-.19,3.68,3.68,0,0,0,1.51-1.47,7,7,0,0,1-.39,2.85,1.89,1.89,0,0,1-.52.63,3,3,0,0,1-1.64.48,6.22,6.22,0,0,1-2.34-.57l-0.46-.24-0.11,2.06a9.28,9.28,0,0,0,3.18.56,6.67,6.67,0,0,0,1.39-.13,4.05,4.05,0,0,0,1.67-.82,4.5,4.5,0,0,0,1.38-3.05c0-.31,0-0.65,0-1v-7.53Zm-4.05.34a1.7,1.7,0,0,1,1.39.91,5.77,5.77,0,0,1,.39,2.32c0,1.49-.22,2.18-0.76,2.72a1.31,1.31,0,0,1-1,.43,1.35,1.35,0,0,1-1.1-.5,1.79,1.79,0,0,1-.26-0.46,5.79,5.79,0,0,1-.34-2.12c0-1.58.22-2.58,0.84-3a1.26,1.26,0,0,1,.8-0.24" transform="translate(-7472 -2433.66)"/><path class="a" d="M7472,2457.6h1.6v-23.94H7472v23.94Z" transform="translate(-7472 -2433.66)"/></svg>
