<?xml version="1.0" encoding="utf-8"?>
<!-- Generator: Adobe Illustrator 22.0.1, SVG Export Plug-In . SVG Version: 6.00 Build 0)  -->
<svg version="1.1" id="Ebene_1" xmlns="http://www.w3.org/2000/svg" xmlns:xlink="http://www.w3.org/1999/xlink" x="0px" y="0px"
	 viewBox="0 0 255.4 88" style="enable-background:new 0 0 255.4 88;" xml:space="preserve">
<style type="text/css">
	.st0{clip-path:url(#SVGID_2_);fill-rule:evenodd;clip-rule:evenodd;fill:#004E9E;}
	.st1{clip-path:url(#SVGID_2_);fill:none;stroke:#004E9E;stroke-width:0.2389;stroke-miterlimit:3.864;}
	.st2{clip-path:url(#SVGID_2_);fill:#749BD1;}
	.st3{clip-path:url(#SVGID_2_);fill:none;stroke:#749BD1;stroke-width:0.2537;stroke-miterlimit:3.864;}
	.st4{clip-path:url(#SVGID_2_);fill:#009EE3;}
	.st5{clip-path:url(#SVGID_2_);fill:none;stroke:#009EE3;stroke-width:0.2537;stroke-miterlimit:3.864;}
	.st6{clip-path:url(#SVGID_2_);fill:#41338B;}
	.st7{clip-path:url(#SVGID_2_);fill:none;stroke:#41338B;stroke-width:0.2537;stroke-miterlimit:3.864;}
	.st8{clip-path:url(#SVGID_2_);fill:#951981;}
	.st9{clip-path:url(#SVGID_2_);fill:none;stroke:#951981;stroke-width:0.2537;stroke-miterlimit:3.864;}
	.st10{clip-path:url(#SVGID_2_);fill:#E40039;}
	.st11{clip-path:url(#SVGID_2_);fill:none;stroke:#E40039;stroke-width:0.2537;stroke-miterlimit:3.864;}
	.st12{clip-path:url(#SVGID_2_);fill:#F9B000;}
	.st13{clip-path:url(#SVGID_2_);fill:none;stroke:#F9B000;stroke-width:0.2537;stroke-miterlimit:3.864;}
	.st14{clip-path:url(#SVGID_2_);fill-rule:evenodd;clip-rule:evenodd;fill:#6F6F6E;}
	.st15{clip-path:url(#SVGID_2_);fill:#6F6F6E;}
</style>
<g>
	<defs>
		<rect id="SVGID_1_" width="255.4" height="88"/>
	</defs>
	<clipPath id="SVGID_2_">
		<use xlink:href="#SVGID_1_"  style="overflow:visible;"/>
	</clipPath>
	<path class="st0" d="M36.8,63.2c0.5,0.5,4,3.8,4,3.8c0.3,0.1,0.1-2.1-0.3-3.4c3.1,0.6,2.9,0.9,6.3,0.5c0.1,1.4,0.1,2.4,0.1,2.4
		s2.3-3,3-4.6c-4.5,2-10.5,2.4-14.1-5.1c-0.3,0.3-0.4,0.3-0.6,0.6c0,1.6,2,3.7,2.4,4C38,61.9,36.8,63.1,36.8,63.2
		c0,0-1.7,0.2-2.6,1.1c1.3,1.4,5.7,5.5,6.4,6.1c0,0.2,1.1,5.2-0.5,13.3c2-0.1,9.9,0,9.9,0c-2.5-11.1,1.3-17.5,1.3-18.8
		c12.8,12.3,23.1-3.5,15.8-7.4c14.4-4.1,8.5-20.5-6.6-18.3c2-9.5-7-7.5-8.3-7c0.6-1.7-0.8-3.1-2-4c0.1-0.3,0.1-0.3,0.1-0.4
		c0.1-0.1,2.9-0.2,3.3,3.1c2-1.6,9.9-1.3,8.7,6.8c2.9-0.4,5.4,0.4,6.4,0.9c0.1-0.3,4.2-10.8-11.4-9.6c0.5-8.1-20.8-13.1-19.1,1.4
		c-13.8-5.8-15.9,6.6-12.2,9.8c-12.1,3.9-5.5,13.6-1.2,14.3c-10.1,5.2,1.6,14.5,9.6,10C35.2,63.2,35.7,63.1,36.8,63.2"/>
	<path class="st1" d="M36.8,63.2c0.5,0.5,4,3.8,4,3.8c0.3,0.1,0.1-2.1-0.3-3.4c3.1,0.6,2.9,0.9,6.3,0.5c0.1,1.4,0.1,2.4,0.1,2.4
		s2.3-3,3-4.6c-4.5,2-10.5,2.4-14.1-5.1c-0.3,0.3-0.4,0.3-0.6,0.6c0,1.6,2,3.7,2.4,4C38,61.9,36.8,63.1,36.8,63.2
		c0,0-1.7,0.2-2.6,1.1c1.3,1.4,5.7,5.5,6.4,6.1c0,0.2,1.1,5.2-0.5,13.3c2-0.1,9.9,0,9.9,0c-2.5-11.1,1.3-17.5,1.3-18.8
		c12.8,12.3,23.1-3.5,15.8-7.4c14.4-4.1,8.5-20.5-6.6-18.3c2-9.5-7-7.5-8.3-7c0.6-1.7-0.8-3.1-2-4c0.1-0.3,0.1-0.3,0.1-0.4
		c0.1-0.1,2.9-0.2,3.3,3.1c2-1.6,9.9-1.3,8.7,6.8c2.9-0.4,5.4,0.4,6.4,0.9c0.1-0.3,4.2-10.8-11.4-9.6c0.5-8.1-20.8-13.1-19.1,1.4
		c-13.8-5.8-15.9,6.6-12.2,9.8c-12.1,3.9-5.5,13.6-1.2,14.3c-10.1,5.2,1.6,14.5,9.6,10C35.2,63.2,35.7,63.1,36.8,63.2z"/>
	<path class="st2" d="M34.1,20.6C62.8,7.7,96,39.9,71,71.2c1.3,1.4,2.3,2.4,2.9,3c6.3-6.3,8.8-14.3,8.8-14.3s0.5,0.5,1,0.9
		c0,0-1.7,7.1-8.9,14.4c1.5,1.6,2.8,2.8,4.3,4.2c26-31.1,4.8-60.9-10.8-68.5c-1.5,2.4-4.2,7-4.2,7c-2.4-0.9-14.3-7.8-31.6,0.7
		C33.5,19.9,34.1,20.6,34.1,20.6"/>
	<path class="st3" d="M34.1,20.6C62.8,7.7,96,39.9,71,71.2c1.3,1.4,2.3,2.4,2.9,3c6.3-6.3,8.8-14.3,8.8-14.3s0.5,0.5,1,0.9
		c0,0-1.7,7.1-8.9,14.4c1.5,1.6,2.8,2.8,4.3,4.2c26-31.1,4.8-60.9-10.8-68.5c-1.5,2.4-4.2,7-4.2,7c-2.4-0.9-14.3-7.8-31.6,0.7
		C33.5,19.9,34.1,20.6,34.1,20.6z"/>
	<path class="st4" d="M58,13.9c0.5,0.1,4.1,1.3,5.5,1.9c2.7-4.5,4.4-7.1,5.2-8.6C52.3-0.2,39.3,3.2,34.1,4.9c-0.1,0-0.4,0.1-0.1,0.1
		c1.1-0.1,3.5,2,7.7,1.1C42.6,3.9,52.1,4.5,55,6.7c1.7,0.9,2,2.4,2.5,3.3c3.6,3.1,0.5,3.7,0.5,3.8C58,13.9,58,13.9,58,13.9"/>
	<path class="st5" d="M58,13.9c0.5,0.1,4.1,1.3,5.5,1.9c2.7-4.5,4.4-7.1,5.2-8.6C52.3-0.2,39.3,3.2,34.1,4.9c-0.1,0-0.4,0.1-0.1,0.1
		c1.1-0.1,3.5,2,7.7,1.1C42.6,3.9,52.1,4.5,55,6.7c1.7,0.9,2,2.4,2.5,3.3c3.6,3.1,0.5,3.7,0.5,3.8C58,13.9,58,13.9,58,13.9z"/>
	<path class="st6" d="M23.1,23.6c0,0,0.2-0.2,0.2-0.2c0.9-1,4.1-4.4,10.7-7.3c0,0,0.1-0.1,0.1-0.1c1.6-1.8,1-3.1,1-3.1
		s0.7-0.3,1.1-0.7c1.1,0.3,2.4,1.3,4.2-0.3c0.7-1.1,4.7-1.8,5.2-1.8c1.2,0.9,2,0.7,2.9,0.7c0.5,1.4,2.2,1.7,2,2c0.1,0,0.2,0,0.2,0
		c1.4,0.1,3.7,0.2,7.2,1.1c1.9-1.4,1.3-2.2-0.6-4c-0.5-1.5-1.3-2.6-2.7-3.4c-2.1-1.8-12-2.8-13.1-0.5c-4.9,1-5.3-0.9-7.7-1
		c-0.9,0.3-0.4,0.1-1.6,0.6c-0.1,0-0.1,0-0.1,0.1c0,0.2,0.4,0.7-0.6,2.2c-0.1,0.4-0.7,1.3-3.5,1c-1.5,0.3-3,1.5-3.2,2.7
		c-0.2,0.7-1.7,0.5-1.3,2.1c0.1,0.5,0.6,1.5,0.2,2.6c0,0.1,0.1,0.2,0.1,0.2c2.2-1.9,5.7-3.6,5.7-3.6l0.7,1c0,0-4,2.3-5.6,3.7
		c0,0,0,0,0,0c0.5,0-0.3,0.5-0.4,0.8c-0.3,0.2-1.8,0.6-1.4,2.7C22.2,23.5,23.1,23.4,23.1,23.6C23,23.6,23,23.6,23.1,23.6"/>
	<path class="st7" d="M23.1,23.6c0,0,0.2-0.2,0.2-0.2c0.9-1,4.1-4.4,10.7-7.3c0,0,0.1-0.1,0.1-0.1c1.6-1.8,1-3.1,1-3.1
		s0.7-0.3,1.1-0.7c1.1,0.3,2.4,1.3,4.2-0.3c0.7-1.1,4.7-1.8,5.2-1.8c1.2,0.9,2,0.7,2.9,0.7c0.5,1.4,2.2,1.7,2,2c0.1,0,0.2,0,0.2,0
		c1.4,0.1,3.7,0.2,7.2,1.1c1.9-1.4,1.3-2.2-0.6-4c-0.5-1.5-1.3-2.6-2.7-3.4c-2.1-1.8-12-2.8-13.1-0.5c-4.9,1-5.3-0.9-7.7-1
		c-0.9,0.3-0.4,0.1-1.6,0.6c-0.1,0-0.1,0-0.1,0.1c0,0.2,0.4,0.7-0.6,2.2c-0.1,0.4-0.7,1.3-3.5,1c-1.5,0.3-3,1.5-3.2,2.7
		c-0.2,0.7-1.7,0.5-1.3,2.1c0.1,0.5,0.6,1.5,0.2,2.6c0,0.1,0.1,0.2,0.1,0.2c2.2-1.9,5.7-3.6,5.7-3.6l0.7,1c0,0-4,2.3-5.6,3.7
		c0,0,0,0,0,0c0.5,0-0.3,0.5-0.4,0.8c-0.3,0.2-1.8,0.6-1.4,2.7C22.2,23.5,23.1,23.4,23.1,23.6C23,23.6,23,23.6,23.1,23.6z"/>
	<path class="st8" d="M34,16.1c1.7-0.8,7.2-3.3,14-3.3c0.5,0,1.1,0,1.6,0c1.3,0,2.2,0.1,1.8,0c-1.4-0.2-2.9-1.3-2.8-2.1
		c-1.8,0.2-2.9-0.7-2.9-0.7c-4.2,0.8-4.5,1.3-5.3,1.8c-1.1,1.6-2.9,1-4.1,0.4c-0.4,0.5-1.1,0.7-1.1,0.7C35.4,14.8,34.2,15.9,34,16.1
		"/>
	<path class="st9" d="M34,16.1c1.7-0.8,7.2-3.3,14-3.3c0.5,0,1.1,0,1.6,0c1.3,0,2.2,0.1,1.8,0c-1.4-0.2-2.9-1.3-2.8-2.1
		c-1.8,0.2-2.9-0.7-2.9-0.7c-4.2,0.8-4.5,1.3-5.3,1.8c-1.1,1.6-2.9,1-4.1,0.4c-0.4,0.5-1.1,0.7-1.1,0.7C35.4,14.8,34.2,15.9,34,16.1
		z"/>
	<path class="st8" d="M8,27.2c0.9-1.7,2.8-4.9,4.6-7.1c0.5-0.3,0.4-0.1,0.5-0.1c0.4,0,0.6-0.2,1.1-0.1c1,0,1.7-0.3,2-1
		c-0.5-0.9-0.3-1.5,1.2-2.7c0.5-0.7,0.2-1.1-0.1-1.1c0,0-0.1-0.1-0.1-0.1c3.9-4,12.7-8.8,14.8-9.5c0.3,1-0.4,1.9-0.7,2.3
		C31,9,29.4,8.8,28.3,8.8c-2,0.1-3.5,2.1-3.4,2.6c0,0.5-1.8,0.7-1.4,2.1c0.5,2.2,0.3,0.6,0.4,2.9c-4.8,3.8-7.5,7.5-9.1,9.9
		c0,0-0.1,0.1-0.2,0.2c0-0.2-1.4-0.1-2-0.2c-1.1-1.2-1,0-0.6,1.1c-0.8,2-2.5,2.1-3.9-0.1C8.1,27.3,8,27.2,8,27.2"/>
	<path class="st9" d="M8,27.2c0.9-1.7,2.8-4.9,4.6-7.1c0.5-0.3,0.4-0.1,0.5-0.1c0.4,0,0.6-0.2,1.1-0.1c1,0,1.7-0.3,2-1
		c-0.5-0.9-0.3-1.5,1.2-2.7c0.5-0.7,0.2-1.1-0.1-1.1c0,0-0.1-0.1-0.1-0.1c3.9-4,12.7-8.8,14.8-9.5c0.3,1-0.4,1.9-0.7,2.3
		C31,9,29.4,8.8,28.3,8.8c-2,0.1-3.5,2.1-3.4,2.6c0,0.5-1.8,0.7-1.4,2.1c0.5,2.2,0.3,0.6,0.4,2.9c-4.8,3.8-7.5,7.5-9.1,9.9
		c0,0-0.1,0.1-0.2,0.2c0-0.2-1.4-0.1-2-0.2c-1.1-1.2-1,0-0.6,1.1c-0.8,2-2.5,2.1-3.9-0.1C8.1,27.3,8,27.2,8,27.2z"/>
	<path class="st10" d="M12.7,19.9c2.1-2.5,3.6-4.1,4.6-5c0.6,0.6,0,1.2,0,1.2c-1.2,0.8-1.9,1.8-1.3,2.7c0,0-0.2,1-2,0.9
		C13.9,19.8,13.3,20,12.7,19.9"/>
	<path class="st11" d="M12.7,19.9c2.1-2.5,3.6-4.1,4.6-5c0.6,0.6,0,1.2,0,1.2c-1.2,0.8-1.9,1.8-1.3,2.7c0,0-0.2,1-2,0.9
		C13.9,19.8,13.3,20,12.7,19.9z"/>
	<path class="st8" d="M16.8,25.9c2.6-3.7,5.5-6.5,8-8.4c0,0.3-0.4,0.5-0.6,0.9c-2,0.7-1.5,2.8-1.5,2.8c-0.7,2.3,0.3,2.4,0.3,2.4
		c-0.8,0.7-2.5,2.7-3.5,4.3c0,0,0,0,0,0c-0.3-0.1-0.7,0-0.6-0.9c-0.5-0.5-0.7-1.1-0.6-1.7c0.2-0.2,0.7-0.9,0.3-0.9
		C16.9,26.5,16.8,26,16.8,25.9"/>
	<path class="st9" d="M16.8,25.9c2.6-3.7,5.5-6.5,8-8.4c0,0.3-0.4,0.5-0.6,0.9c-2,0.7-1.5,2.8-1.5,2.8c-0.7,2.3,0.3,2.4,0.3,2.4
		c-0.8,0.7-2.5,2.7-3.5,4.3c0,0,0,0,0,0c-0.3-0.1-0.7,0-0.6-0.9c-0.5-0.5-0.7-1.1-0.6-1.7c0.2-0.2,0.7-0.9,0.3-0.9
		C16.9,26.5,16.8,26,16.8,25.9z"/>
	<path class="st10" d="M8,27.3c0,0,2.3,3.7,4.1,0.2c-0.8-2.7,0.5-1.2,0.5-1.2c0.8,0.3,1.9,0,2.1,0.2C13.9,27.7,6,39.2,8.6,55.1
		c0.1,1.3,1.6,7,2.6,9.2c0,0,0,0,0,0.1c-0.7-0.2-0.4,0.7-0.5,1.1c0.3,2.1-2.2,0.6-2.5,0.4c0,0-0.5,0.3-0.7,0.2
		c-0.9-0.1-1.2-2.1-1.9-1.6c0,0,0,0-0.1,0.1C-2,43.9,7.9,27.3,8,27.3"/>
	<path class="st11" d="M8,27.3c0,0,2.3,3.7,4.1,0.2c-0.8-2.7,0.5-1.2,0.5-1.2c0.8,0.3,1.9,0,2.1,0.2C13.9,27.7,6,39.2,8.6,55.1
		c0.1,1.3,1.6,7,2.6,9.2c0,0,0,0,0,0.1c-0.7-0.2-0.4,0.7-0.5,1.1c0.3,2.1-2.2,0.6-2.5,0.4c0,0-0.5,0.3-0.7,0.2
		c-0.9-0.1-1.2-2.1-1.9-1.6c0,0,0,0-0.1,0.1C-2,43.9,7.9,27.3,8,27.3z"/>
	<path class="st12" d="M5.5,64.6c0.6-0.8,1.1,2.3,2.7,1.4c2.5,1.3,2.7,0.2,2.6-0.6c0.1-0.5-0.3-1,0.4-1.1c2.2,5.5,5.3,9.1,6.5,10.6
		c-0.3,0.3-2.9,3-3.7,3.8C9.9,74,7.3,69.3,5.5,64.6"/>
	<path class="st13" d="M5.5,64.6c0.6-0.8,1.1,2.3,2.7,1.4c2.5,1.3,2.7,0.2,2.6-0.6c0.1-0.5-0.3-1,0.4-1.1c2.2,5.5,5.3,9.1,6.5,10.6
		c-0.3,0.3-2.9,3-3.7,3.8C9.9,74,7.3,69.3,5.5,64.6z"/>
	<path class="st10" d="M16.7,26.1c-6.1,9.1-8.5,19.1-6.4,30.6c0,0,0.1,0,0.2-0.1c-0.1-0.4,1-1,1.2-2.1c0.1-1.4-0.5-1.3-0.4-1.9
		c0.8-1.3-0.1-1.9,0.7-2.9c0.8-1.6,0.8-0.9,1-1.1c0,0,0-0.1,0-0.1c0-10.1,4.2-17.2,6.5-20.4c-0.3-0.1-0.7-0.1-0.7-1
		c-0.8-0.7-0.5-1.8-0.5-1.8s0.6-0.7,0.4-0.8C18.5,24.5,17,26.5,16.7,26.1"/>
	<path class="st11" d="M16.7,26.1c-6.1,9.1-8.5,19.1-6.4,30.6c0,0,0.1,0,0.2-0.1c-0.1-0.4,1-1,1.2-2.1c0.1-1.4-0.5-1.3-0.4-1.9
		c0.8-1.3-0.1-1.9,0.7-2.9c0.8-1.6,0.8-0.9,1-1.1c0,0,0-0.1,0-0.1c0-10.1,4.2-17.2,6.5-20.4c-0.3-0.1-0.7-0.1-0.7-1
		c-0.8-0.7-0.5-1.8-0.5-1.8s0.6-0.7,0.4-0.8C18.5,24.5,17,26.5,16.7,26.1z"/>
	<path class="st12" d="M13,48.4c0,11.5,5.4,19.3,8.3,22.8c-1.6,1.7-2.4,2.5-2.6,2.7c-5.1-5.8-7.6-13.4-8.4-17.1
		c0.4-0.8,1.3-1.3,1.4-2.2c0.2-1.3-0.3-1-0.3-2c0.8-1.4-0.2-1.6,0.7-2.9C12.4,48.9,12.8,48.3,13,48.4"/>
	<path class="st13" d="M13,48.4c0,11.5,5.4,19.3,8.3,22.8c-1.6,1.7-2.4,2.5-2.6,2.7c-5.1-5.8-7.6-13.4-8.4-17.1
		c0.4-0.8,1.3-1.3,1.4-2.2c0.2-1.3-0.3-1-0.3-2c0.8-1.4-0.2-1.6,0.7-2.9C12.4,48.9,12.8,48.3,13,48.4z"/>
	<path class="st14" d="M169,72.1c-0.4,0.1-5.3,0.9-5.3,0.9c0-1.9,1-3.7,2.7-3.7C168.1,69.3,168.8,70.9,169,72.1 M171.8,78.2l-1-1.7
		c-1,0.6-2,1.2-3.7,1.2c-1.8,0-2.8-1.2-3.2-3c0,0,6.3-0.9,6.7-1c0.7-0.1,1-0.2,1.2-0.2c0-0.1-0.1-0.5-0.2-1.1c-0.7-2.8-2.1-5-5.3-5
		c-3.5,0-5.3,2.9-5.3,6.4c0,3.3,2.2,5.9,5.8,5.9C169.2,79.8,170.7,78.9,171.8,78.2"/>
	<path class="st14" d="M141.1,72.1c-0.4,0.1-5.3,0.9-5.3,0.9c0-1.9,1-3.7,2.7-3.7C140.1,69.3,140.8,70.8,141.1,72.1 M143.8,78.2
		l-1-1.7c-1,0.6-2,1.2-3.7,1.2c-1.8,0-2.8-1.2-3.2-3c0,0,6.3-0.9,6.7-1c0.7-0.1,1-0.2,1.2-0.2c0-0.1-0.1-0.5-0.2-1.1
		c-0.7-2.8-2.1-5-5.3-5c-3.5,0-5.3,2.9-5.3,6.4c0,3.3,2.2,5.9,5.8,5.9C141.2,79.8,142.7,78.9,143.8,78.2"/>
	<polygon class="st15" points="123.9,62.5 121.3,62.2 117.8,76.3 114.2,62.5 111.6,62.5 107.6,76.2 105,62.2 102.1,62.5 105.7,79.5 
		108.9,79.5 112.7,67.1 116,79.5 119.2,79.5 	"/>
	<path class="st14" d="M129.3,67.9h-2.6v11.6h2.6V67.9z M129.8,63.5c0-0.9-0.8-1.7-1.8-1.7c-1,0-1.7,0.8-1.7,1.7
		c0,0.9,0.8,1.7,1.7,1.7C129,65.2,129.8,64.5,129.8,63.5"/>
	<path class="st14" d="M154.8,76.5c-0.7,0.5-1.6,1.1-2.6,1.1c-2.3,0-3-1.9-3-4.1c0-2.2,1.1-4,3.2-4c0.8,0,1.7,0.2,2.5,0.6V76.5z
		 M157.5,79.5l0-17c0,0-2.7,0-2.7,0l0,5.5c-0.7-0.3-1.6-0.5-2.4-0.5c-3.6,0-5.9,2.9-5.9,6.2c0,3.5,2,6,5.3,6c1.4,0,2.4-0.7,3.1-1.4
		v1.2H157.5z"/>
	<path class="st15" d="M186.1,79.5v-8c0-2.5-1.3-4-3.3-4c-1.7,0-3.1,1-4.5,1.8v-1.4h-2.6v11.6h2.7v-8.4c0.8-0.4,2.7-1.4,3.5-1.4
		c1,0,1.5,0.5,1.5,2.2v7.7H186.1z"/>
	<path class="st14" d="M199,73.4c0,2.2-1.3,4.4-3.3,4.4c-0.7,0-1.4-0.2-2.2-0.4v-7c0.6-0.2,2.1-0.8,2.9-0.8
		C198.4,69.5,199,71.4,199,73.4 M201.8,73c0-2.9-1.8-5.5-4.7-5.5c-1.4,0-2.5,0.5-3.5,0.9l0-5.9c0,0-2.4,0-2.6,0c0,0.2,0,16.3,0,16.3
		c1.6,0.5,3.2,1,4.7,1C199.4,79.8,201.8,77,201.8,73"/>
	<path class="st15" d="M212.3,67.7c0,0-0.6-0.3-1.3-0.3c-1.3,0-2.5,1-3.2,1.6v-1.2h-2.6v11.6h2.7v-8.4c0.7-0.5,1.7-1.3,2.7-1.3
		c0.5,0,1.1,0.2,1.2,0.2L212.3,67.7z"/>
	<path class="st14" d="M225,79.5V67.8h-2.6v8.4c-0.7,0.4-2.5,1.4-3.3,1.4c-1,0-1.5-0.5-1.5-2.2v-7.7h-2.7v8c0,2.5,1.3,4,3.3,4
		c1.7,0,2.9-0.9,4.3-1.8v1.4H225z M218.9,63.7c0-0.9-0.7-1.5-1.6-1.5c-0.9,0-1.6,0.7-1.6,1.5c0,0.8,0.7,1.5,1.6,1.5
		C218.2,65.2,218.9,64.5,218.9,63.7 M224.1,63.7c0-0.9-0.7-1.5-1.6-1.5c-0.9,0-1.5,0.7-1.5,1.5c0,0.8,0.7,1.5,1.5,1.5
		C223.4,65.2,224.1,64.5,224.1,63.7"/>
	<path class="st15" d="M238.5,78.5l-0.9-1.8c-1.1,0.5-1.7,0.9-3,0.9c-2.3,0-3.5-1.8-3.5-4c0-2.6,1.2-4.1,3-4.1
		c1.1,0,1.9,0.3,2.9,0.8l1-1.7c-1.1-0.6-2.4-1.1-3.9-1.1c-3.5,0-5.7,2.7-5.7,6.4c0,3.2,2.2,5.9,5.9,5.9
		C236,79.8,237.1,79.4,238.5,78.5"/>
	<path class="st14" d="M244.6,79.5l0-17h-2.7l0,17H244.6z M252.1,79l-4.7-6.3l4.4-4.9h-3.4l-3.8,4.6V73l4.6,6.9L252.1,79z"/>
	<path class="st14" d="M139.2,48.7c-0.4,0.1-5.3,0.9-5.3,0.9c0-1.9,1-3.7,2.7-3.7C138.2,45.9,139,47.5,139.2,48.7 M142,54.9l-1-1.7
		c-1,0.6-2,1.2-3.7,1.2c-1.8,0-2.8-1.2-3.2-3c0,0,6.3-0.9,6.7-1c0.7-0.1,1-0.2,1.2-0.2c0-0.1-0.1-0.5-0.2-1.1c-0.7-2.8-2.1-5-5.3-5
		c-3.5,0-5.3,2.9-5.3,6.4c0,3.3,2.2,5.9,5.8,5.9C139.4,56.4,140.9,55.6,142,54.9"/>
	<path class="st14" d="M152.8,53.1c-0.7,0.5-1.6,1.1-2.6,1.1c-2.3,0-3-1.9-3-4.1c0-2.2,1.1-4,3.2-4c0.8,0,1.7,0.2,2.5,0.6V53.1z
		 M155.5,56.1l0-17h-2.7v5.5c-0.7-0.3-1.6-0.5-2.4-0.5c-3.6,0-5.9,2.9-5.9,6.2c0,3.5,2,6,5.3,6c1.4,0,2.4-0.7,3.1-1.4v1.2H155.5z"/>
	<path class="st14" d="M165.8,53.3c-0.6,0.3-2,1-2.9,1c-0.8,0-1.4-0.5-1.4-1.5c0-1.2,1-1.6,2.2-1.8c0.7-0.1,1.9-0.3,2.1-0.3
		C165.9,51,165.8,53.3,165.8,53.3 M168.5,56.1v-8.2c0-2.1-1.4-3.8-4-3.8c-1.6,0-3.2,0.4-4.7,1l0.8,2c1.3-0.5,2.4-0.8,3.6-0.8
		c1.1,0,1.7,0.4,1.7,2c0,0,0,0.7,0,0.9c-0.2,0-1.9,0.2-2.5,0.3c-2.6,0.3-4.4,1.3-4.4,3.5c0,2.2,1.4,3.4,3.2,3.4
		c1.5,0,2.7-0.8,3.8-1.5v1.3H168.5z"/>
	<path class="st14" d="M110,43.9c0,1.8-0.9,2.7-2.6,2.7l-2.1,0v-5.4l2,0C109.2,41.2,110,42.4,110,43.9 M113.9,55.8l-4.3-7.7
		c1.6-0.6,3.2-2,3.2-4.4c0-2.6-1.5-4.8-5.9-4.7h-4.5v17.1h2.8v-7.4h1.5c0.1,0,0.2,0,0.4,0l3.8,7.7L113.9,55.8z"/>
	<path class="st15" d="M127.8,56.1v-8c0-2.5-1.3-4-3.4-4c-1.6,0-3,1-4.4,1.8l0-6.8l-2.6,0l0,17h2.7v-8.4c0.8-0.4,2.7-1.5,3.5-1.5
		c1,0,1.5,0.6,1.5,2.2v7.7H127.8z"/>
	<rect x="171.8" y="48.6" class="st15" width="6.5" height="2.2"/>
</g>
</svg>
