<?xml version="1.0" encoding="utf-8"?>
<!-- Generator: Adobe Illustrator 22.0.1, SVG Export Plug-In . SVG Version: 6.00 Build 0)  -->
<svg version="1.1" id="Ebene_1" xmlns="http://www.w3.org/2000/svg" xmlns:xlink="http://www.w3.org/1999/xlink" x="0px" y="0px"
	 viewBox="0 0 16.2 27.9" style="enable-background:new 0 0 16.2 27.9;" xml:space="preserve">
<style type="text/css">
	.st0{fill:#FFFFFF;}
</style>
<g>
	<path class="st0" d="M16,14.6l-13,13c-0.2,0.2-0.4,0.3-0.6,0.3c-0.2,0-0.5-0.1-0.6-0.3l-1.4-1.4C0.1,26,0,25.8,0,25.5
		c0-0.2,0.1-0.5,0.3-0.6l11-11L0.3,3C0.1,2.8,0,2.5,0,2.3s0.1-0.5,0.3-0.6l1.4-1.4C1.8,0.1,2.1,0,2.3,0C2.5,0,2.8,0.1,3,0.3l13,13
		c0.2,0.2,0.3,0.4,0.3,0.6C16.2,14.1,16.1,14.4,16,14.6z"/>
</g>
</svg>
