<svg xmlns="http://www.w3.org/2000/svg" viewBox="0 0 700.6 115"><defs><style>.a{fill:#253d5d;}.b{fill:#025c72;}</style></defs><title>uandi</title><path class="a" d="M153.1,28.6a13.17,13.17,0,0,0,9.8-4.2A14.13,14.13,0,0,0,167,14.3a13.9,13.9,0,0,0-4.1-10,13.53,13.53,0,0,0-19.6,0,14,14,0,0,0-4.1,10.1,14,14,0,0,0,4,10.1,13.84,13.84,0,0,0,9.9,4.1" transform="translate(0 -0.1)"/><polygon class="a" points="163 96.9 163 42.4 126.8 42.4 126.8 58.8 143.2 58.8 143.2 96.9 126.8 96.9 126.8 113.3 179.4 113.3 179.4 96.9 163 96.9"/><path class="a" d="M88.9,59V42.5H44.1V59h8.5V91.5c-6.1,4-9.6,5.6-15.8,6-4.8.3-6.5-1.8-7.5-3s-1.5-3.6-1.5-7v-45H0V59H7.9V93.1c0,6.7,1.8,12,5.5,15.7s8.8,5.6,15.2,5.6c7.8,0,17.5-2.3,23.9-6.8l.6,5.9H88.7V97H72.4V59Z" transform="translate(0 -0.1)"/><path class="b" d="M225.1,113.4v-4.9l10.5-.8c1.9-.4,2.2-.7,2.2-2.7V54c0-1.5-.4-2.5-1.8-2.9l-8-2.6,1-4.4h15.5v60.8c0,2.2.1,2.5,2.2,2.7l10.2,1v4.8Zm14.2-87.8c-4,0-6.3-2-6.3-5.9s2.3-6,6.3-6,6.4,2,6.4,6C245.7,23.5,243.2,25.6,239.3,25.6Z" transform="translate(0 -0.1)"/><path class="b" d="M314.7,113.4v-4.9l7.5-.8c2-.4,1.9-.4,1.9-2.5V72.1c0-18.5-5.3-23.3-15.4-23.3-11.6,0-22.9,8.6-25.6,11.5V105c0,2.2.1,2.5,2.2,2.7l8.6,1v4.8h-27v-4.9l7.4-.8c1.9-.3,2.2-.7,2.2-2.7v-51c0-1.5-.4-2.5-1.8-2.9l-8-2.6,1-4.4h14l1.2,9.4c6.7-5,15.5-10.8,27.3-10.8,16.1,0,20.9,10.1,20.9,26.7V105c0,2.2.1,2.5,2.2,2.7l8.5,1v4.8H314.7Z" transform="translate(0 -0.1)"/><path class="b" d="M394.2,111.2a37.76,37.76,0,0,1-16.4,3.8c-10.9,0-16.6-5.9-16.6-15.5V51.1c0-.8,0-1.4-1.1-1.4H350V45.6c9.7-1.4,11.5-4.4,13.2-17.5H368V42.7c0,.8,0,1.4,1.1,1.4h20.5v5.6H368.1V96.2c0,8.9,2.9,13,10.9,13,4.6,0,9.3-1.6,13.2-3.3Z" transform="translate(0 -0.1)"/><path class="b" d="M454.8,109.2c-5.3,3.5-13.5,5.9-22.8,5.9-23.9,0-31.4-16.2-31.4-36.6,0-24.4,13-35.7,29.6-35.7,15.3,0,26.5,8.7,26.5,31.8a38.41,38.41,0,0,1-.3,5h-49c.4,17,7.1,29.5,24.8,29.5,9,0,14.5-2,19.9-5.2Zm-5.2-35.1c-.3-18.1-8.3-25.5-19.5-25.5s-21,6.1-22.2,25.5Z" transform="translate(0 -0.1)"/><path class="b" d="M469.6,113.4v-4.9l7.4-.8c1.9-.3,2.2-.7,2.2-2.7V54c0-1.5-.4-2.5-1.8-2.9l-8-2.6,1-4.4h13.9l1.2,8.9c5.9-4.9,12.8-10.2,21.3-10.2a29.63,29.63,0,0,1,8.3,1.2V61.5l-4.9-.4-1.9-11.2c-.1-.8-.1-1.1-1.6-1.1-8,0-16.9,6.8-20.7,10.9v45.4c0,2.2.1,2.3,2.2,2.7l12.1.8v4.8Z" transform="translate(0 -0.1)"/><path class="b" d="M569.3,113.4l-1.2-10c-7.8,7.2-16,11.6-26.2,11.6-17.1,0-18.7-11.7-18.7-17.7,0-13.6,8.5-19,24.3-20.3L568,75.2V67c0-12.8-2.6-18.5-16.8-18.5-9.8,0-17.6.3-17.7,12.1l-6.5-1c0-15.5,14.6-16.9,24.3-16.9,18.1,0,23.5,5.5,23.5,23.7v38.5c0,2.2.1,2.5,2.2,2.7l7.2,1v4.8Zm-1.4-32.6-19.8,1.8c-14.2,1.2-17.9,5.9-17.9,13.9,0,8.9,4.2,12.8,12.7,12.8,10.5,0,19.6-6.8,25-12.8Z" transform="translate(0 -0.1)"/><path class="b" d="M648.3,109.2c-4.2,3-13.6,5.9-21.8,5.9-22.5,0-31.9-15.1-31.9-35.6,0-26.2,14.5-36.7,34.5-36.7a58.8,58.8,0,0,1,18.4,3.1V61.4l-5.3-.4-1.6-9.4c-.1-.8-.3-1.2-1.5-1.6a40.06,40.06,0,0,0-11.2-1.5c-14.7,0-26.3,8.9-26.3,30.8,0,20.2,10,29.7,25.6,29.7,6.8,0,14-2.2,18.5-5.2Z" transform="translate(0 -0.1)"/><path class="b" d="M700.6,111.2a37.76,37.76,0,0,1-16.4,3.8c-10.9,0-16.6-5.9-16.6-15.5V51.1c0-.8,0-1.4-1.1-1.4H656.4V45.6c9.7-1.4,11.5-4.4,13.2-17.5h4.8V42.7c0,.8,0,1.4,1.1,1.4H696v5.6H674.5V96.2c0,8.9,2.9,13,10.9,13,4.6,0,9.3-1.6,13.2-3.3Z" transform="translate(0 -0.1)"/></svg>