<svg id="Ebene_1" data-name="Ebene 1" xmlns="http://www.w3.org/2000/svg" width="256" height="256" viewBox="0 0 256 256"><title>Extension</title><rect width="256" height="256" style="fill:#263d5c"/><polygon points="222.99 177.12 222.99 109.12 173.07 109.12 173.07 131.82 195.77 131.82 195.77 177.12 173.07 177.12 173.07 199.81 244 199.81 244 177.12 222.99 177.12" style="fill:#fff"/><path d="M68.15,131.81H78.56v40c-7.76,5.11-12.09,7.21-20,7.72-6.17.39-8.29-2.29-9.61-3.89S47,171.09,47,166.75V109.12H9.27v22.69H20.32v42.05q0,12.94,7.05,20c4.71,4.73,12.49,7.1,20.77,7.1,10,0,22.2-2.91,30.42-8.72v7.53h50.09V177.12H106V131.81h22.69V109.12H68.15Z" style="fill:#fff"/><path d="M226.21,75a18.14,18.14,0,1,1-18.13-18.14A18.13,18.13,0,0,1,226.21,75Z" style="fill:#fff"/></svg>